# xmcd
#
# Track frame offsets:
#	150
#	14383
#	35165
#	59774
#	79109
#	97220
#	110387
#	132212
#	148059
#	171546
#	185496
#	214652
#	233626
#
# Disc length: 3341 seconds
#
# Revision: 2
# Processed by: cddbd v1.4PL0 Copyright (c) Steve Scherf et al.
# Submitted via: audiograbber 1.82.02
#
DISCID=c20d0b0d
DTITLE=Various Artist - The Best Of The Muster Blues 2003
DYEAR=1900
DGENRE=
TTITLE0=Eric Bibb - So Sorry
TTITLE1=Mia Dyson - Roll On
TTITLE2=Expatriates - Cruisin' For My Used To Be
TTITLE3=Dirty Lucy - You Walk Away
TTITLE4=Ash Grunwald - Just Be Yourself
TTITLE5=Barbara Fordham - Whoa Tillie, Take Your Time
TTITLE6=Buzz and The Blues - Take It Easy
TTITLE7=Fiona Boyes - Ain't No Jelly Roll In Heaven
TTITLE8=Groovefarm - Thank You
TTITLE9=Jan Preston - Bad Luck Woman
TTITLE10=Kevin Borich - Saved By The Blues
TTITLE11=Phil Manning - Weary Traveller
TTITLE12=Mettaphor - Heaven
EXTD=
EXTT0=
EXTT1=
EXTT2=
EXTT3=
EXTT4=
EXTT5=
EXTT6=
EXTT7=
EXTT8=
EXTT9=
EXTT10=
EXTT11=
EXTT12=
PLAYORDER=
